<svg width="363" height="324" viewBox="0 0 363 324" fill="none" xmlns="http://www.w3.org/2000/svg">
<g clip-path="url(#clip0_32_26)">
<path d="M163.449 279.905C176.682 270.623 179.684 258.376 179.389 242.746C178.38 189.269 178 101.5 178 101.5L174.958 82.2629L170.458 82.263L165.458 82.2629C165.458 82.2629 164.958 82.2629 163.958 82.263C163.541 82.263 164.458 82.2631 162.458 82.263C160.458 82.2629 159.458 82.263 159.458 82.263L155.958 82.2629H153.458L138.342 82.2627V92.1386C138.342 92.1386 138.393 95.2581 138.342 99.6644C137.999 128.989 137.845 158.317 137.786 187.644C137.75 205.459 137.923 223.275 138.181 241.089C138.226 244.161 137.488 246.529 135.358 248.716C130.497 253.707 125.774 258.832 120.389 264.544C101.207 244.151 62.1565 203 62.1565 203C62.1565 203 62.2462 216.864 62.1565 223C61.9738 235.5 62 260 62 260L65.3842 267.912L117.401 320.511L121 324L124.18 320.298C124.18 320.298 150.019 293.368 163.449 279.905Z" fill="white"/>
<path d="M153.191 279.906C139.958 270.624 136.957 258.376 137.252 242.747C138.26 189.269 137.556 82.2635 137.556 82.2635L141.853 71.7154L208.667 4.89736L220.075 0.0406063L355.067 0.107661H363.119C363.119 0.107661 359.538 3.5701 358.631 4.4776C347.675 15.439 325.791 37.3883 325.791 37.3883L316.164 41.4383L236.669 41.2339L226.186 45.6501L182.724 89.1526L178.299 99.6649C178.299 99.6649 178.796 158.317 178.855 187.644C178.891 205.459 178.718 223.276 178.459 241.089C178.415 244.162 179.153 246.53 181.282 248.716C186.143 253.707 190.867 258.832 196.251 264.544C215.434 244.151 234.427 223.808 254 203C254.146 210.695 253.91 216.864 254 223C254 235.5 254 260.5 254 260.5L251.256 267.913L199.239 320.512L196 324L192.461 320.299C192.461 320.299 166.622 293.369 153.191 279.906Z" fill="white"/>
<path d="M151.808 17.9889L132.186 37.7164L123.436 41.4783L45.5104 41.4179L38 38L3.37236 3.80383C3.37236 3.80383 0.457107 0.67736 0 0C4 0.000111938 169 0 169 0L151.808 17.9889Z" fill="white"/>
</g>
<defs>
<clipPath id="clip0_32_26">
<rect width="363" height="324" fill="white"/>
</clipPath>
</defs>
</svg>
