<svg width="110" height="156" viewBox="0 0 110 156" fill="none" xmlns="http://www.w3.org/2000/svg">
<path d="M3.2 34.456H43.264C44.6293 34.456 45.7387 34.9253 46.592 35.864C47.4453 36.8027 47.872 38.04 47.872 39.576V127H34.432C31.5307 127 29.6107 126.531 28.672 125.592C27.8187 124.653 27.392 122.691 27.392 119.704V50.456H6.912C4.43733 50.456 3.2 48.408 3.2 44.312V34.456ZM52.992 34.456H73.472C75.9467 34.456 77.184 36.504 77.184 40.6V50.456H52.992V34.456Z" fill="white"/>
<path d="M62.72 80.728V119.064C62.72 119.747 62.8053 120.237 62.976 120.536C63.1893 120.792 63.68 120.92 64.448 120.92H71.36V127H61.952C58.8373 127 56.4693 126.467 54.848 125.4C53.2693 124.333 52.48 122.477 52.48 119.832V84.376C52.48 82.8827 52.6933 81.9013 53.12 81.432C53.5893 80.9627 54.5493 80.728 56 80.728H62.72ZM73.28 95H79.936C81.216 95 82.1333 95.3627 82.688 96.088C83.2427 96.7707 83.52 97.9013 83.52 99.48V119.064C83.52 119.747 83.6053 120.237 83.776 120.536C83.9893 120.792 84.48 120.92 85.248 120.92H92.16V127H75.584C74.9013 127 74.3467 126.765 73.92 126.296C73.4933 125.827 73.28 125.208 73.28 124.44V95ZM94.72 80.728H101.44C102.891 80.728 103.851 80.9627 104.32 81.432C104.789 81.9013 105.024 82.8827 105.024 84.376V124.44C105.024 125.208 104.789 125.827 104.32 126.296C103.893 126.765 103.339 127 102.656 127H94.72V80.728Z" fill="white"/>
</svg>
